Coordinates
version=1
nRows=14
nColumns=42
inDegrees=yes

Units are S.I. units (second, meters, Newtons, ...)
If the header above contains a line with 'inDegrees', this indicates whether rotational values are in degrees (yes) or radians (no).

endheader
time	pelvis_tilt	pelvis_list	pelvis_rotation	pelvis_tx	pelvis_ty	pelvis_tz	hip_flexion_r	hip_adduction_r	hip_rotation_r	knee_angle_r	knee_adduction_r	knee_angle_r_beta	ankle_angle_r	subtalar_angle_r	mtp_angle_r	hip_flexion_l	hip_adduction_l	hip_rotation_l	knee_angle_l	knee_adduction_l	knee_angle_l_beta	ankle_angle_l	subtalar_angle_l	mtp_angle_l	lumbar_extension	lumbar_bending	lumbar_rotation	arm_flex_r	arm_add_r	arm_rot_r	elbow_flex_r	pro_sup_r	wrist_flex_r	wrist_dev_r	arm_flex_l	arm_add_l	arm_rot_l	elbow_flex_l	pro_sup_l	wrist_flex_l	wrist_dev_l
      0.30000000	     17.15411930	      1.26589407	     -0.60231308	     -0.90774087	      0.99434507	     -0.14985139	      4.74865778	     -2.26632601	     -6.45222676	     41.41001883	      0.02393814	      0.72274117	      7.16744937	     -3.66671005	     -9.65495198	    -22.02933883	      4.48686919	     -9.66292096	      4.36426779	      0.04344209	      0.07617084	      9.87809749	     20.65625984	     -9.65495198	    -38.40687768	     -0.92708153	      1.59519125	     -1.30035525	    -19.19561551	     -5.70396053	     66.58430909	     90.00000001	      0.00000000	      0.00000000	      3.74134031	    -18.36007393	      0.47478806	     65.24225046	     90.00000001	      0.00000000	      0.00000000
      0.31000000	     16.83966039	      1.68167734	     -0.48564309	     -0.89541028	      0.99201449	     -0.15024348	      6.03582661	     -2.61967331	     -6.75521398	     38.66494419	     -0.06788127	      0.67483058	      7.02492055	     -3.39372757	     -9.61893231	    -22.56951382	      4.95370773	     -9.68495508	      4.23097039	     -0.05970851	      0.07384436	     10.58776648	     20.93642930	     -9.61893231	    -38.12313549	     -1.19411356	      1.36052221	     -1.57748278	    -19.14623722	     -6.10613090	     66.51743583	     90.00000001	      0.00000000	      0.00000000	      4.42727563	    -18.77355468	      0.76816623	     65.91045912	     90.00000001	      0.00000000	      0.00000000
      0.32000000	     17.17593797	      1.67089212	     -0.11628699	     -0.88238404	      0.99055259	     -0.15047350	      6.19985546	     -2.46508497	     -7.94787074	     35.23050148	     -0.47775552	      0.61488825	      6.68359073	     -2.49504683	     -9.54662997	    -24.01487032	      4.67052521	     -9.59863273	      3.83050705	      0.29172037	      0.06685496	     11.23832302	     21.66952562	     -9.54662997	    -38.45928471	     -0.96394828	      1.34024360	     -2.05003424	    -19.07966188	     -6.90519603	     66.59494050	     90.00000001	      0.00000000	      0.00000000	      5.23741001	    -19.24922616	      1.50455275	     66.58858383	     90.00000001	      0.00000000	      0.00000000
      0.33000000	     17.10959612	      1.97370028	      0.08825668	     -0.86978839	      0.98820838	     -0.15069991	      6.94477635	     -2.67495611	     -9.12218947	     32.07513122	     -0.93643068	      0.55981665	      6.42566214	     -1.13263674	     -9.48388769	    -24.81723390	      4.87708133	     -9.45261392	      3.77857366	      0.36800656	      0.06594855	     12.04060725	     22.00570103	     -9.48388769	    -38.42490616	     -1.10513910	      1.17493639	     -2.33444970	    -18.98969270	     -7.43006472	     66.47564699	     90.00000001	      0.00000000	      0.00000000	      6.02106465	    -19.68746220	      2.03476347	     67.20112248	     90.00000001	      0.00000000	      0.00000000
      0.34000000	     17.06767678	      2.33922715	      0.30136509	     -0.85694317	      0.98562608	     -0.15092756	      7.67245710	     -2.93180421	    -11.28550748	     29.00598491	     -1.94344869	      0.50624994	      6.65896822	      2.08200580	     -9.32888576	    -25.60177047	      5.16188630	     -9.23002721	      3.85402101	      0.36364057	      0.06726536	     12.71044928	     22.18420686	     -9.32888576	    -38.38638010	     -1.29383138	      0.97610037	     -2.68794844	    -18.90661195	     -7.90249946	     66.47663599	     90.00000001	      0.00000000	      0.00000000	      6.79817396	    -20.11327901	      2.58212115	     67.74577348	     90.00000001	      0.00000000	      0.00000000
      0.35000000	     16.94797505	      2.74982950	      0.53628333	     -0.84419510	      0.98283374	     -0.15110836	      8.43198176	     -3.27227769	    -13.35974198	     25.99000758	     -2.65711150	      0.45361120	      6.54211980	      4.82949644	     -9.18313947	    -26.25209936	      5.47050771	     -8.81644176	      4.03453049	      0.35616370	      0.07041584	     13.48650238	     22.18405758	     -9.18313947	    -38.29226843	     -1.52417858	      0.74560079	     -2.97230260	    -18.76231326	     -8.40763034	     66.35646074	     90.00000001	      0.00000000	      0.00000000	      7.61965454	    -20.55944096	      3.21371479	     68.23208182	     90.00000001	      0.00000000	      0.00000000
      0.36000000	     16.60339280	      3.30806704	      0.60860688	     -0.83175439	      0.97965027	     -0.15118359	      9.40525429	     -3.75544941	    -14.51806715	     23.07475154	     -2.89501291	      0.40273039	      5.87578623	      6.03068429	     -9.14693242	    -26.53673761	      6.07201952	     -8.45814322	      4.42576731	      0.15051573	      0.07724421	     14.37143312	     22.19872727	     -9.14693242	    -38.00383158	     -1.97415599	      0.50421904	     -3.11339855	    -18.62681052	     -8.77635162	     66.11300780	     90.00000001	      0.00000000	      0.00000000	      8.42899988	    -20.95790930	      3.73706504	     68.66438100	     90.00000001	      0.00000000	      0.00000000
      0.37000000	     16.66016038	      3.59231424	      1.01151202	     -0.81840099	      0.97693235	     -0.15135951	      9.87011992	     -4.01213589	    -17.71496804	     20.35957923	     -3.69962476	      0.35534169	      5.94974371	     10.65064848	     -9.02465279	    -27.36689324	      6.08251507	     -7.98708302	      4.74560863	      0.27458330	      0.08282650	     15.07048862	     22.11032490	     -9.02465279	    -38.04203259	     -1.99423329	      0.28814336	     -3.50332544	    -18.47073892	     -9.32780112	     66.06234186	     90.00000001	      0.00000000	      0.00000000	      9.24492790	    -21.35700331	      4.50934853	     69.03180666	     90.00000001	      0.00000000	      0.00000000
      0.38000000	     16.48925344	      3.92807832	      1.32212284	     -0.80537855	      0.97396224	     -0.15140346	     10.47421316	     -4.31874784	    -19.59828164	     17.77605022	     -3.81556737	      0.31025060	      5.35348606	     12.85662740	     -8.93960871	    -27.83593449	      6.21994254	     -7.68315076	      5.26442230	      0.27844776	      0.09188150	     15.87035636	     22.10714478	     -8.93960871	    -37.90034310	     -2.11388094	      0.07180755	     -3.74692352	    -18.29850014	     -9.76806545	     65.89168099	     90.00000001	      0.00000000	      0.00000000	     10.04195132	    -21.70405469	      5.17267888	     69.34760118	     90.00000001	      0.00000000	      0.00000000
      0.39000000	     16.15898044	      4.40965522	      1.56977461	     -0.79238230	      0.97079520	     -0.15145622	     11.17924628	     -4.79192737	    -20.62438617	     15.48247204	     -3.58392894	      0.27022011	      4.68937651	     13.86368245	     -8.91356859	    -28.11239502	      6.61416207	     -7.26800912	      5.81370981	      0.08309174	      0.10146838	     16.60436564	     22.14863142	     -8.91356859	    -37.60439415	     -2.41390580	     -0.24278462	     -3.87578300	    -18.14108837	    -10.04738761	     65.56660260	     90.00000001	      0.00000000	      0.00000000	     10.74493083	    -22.03469238	      5.68834818	     69.66382458	     90.00000001	      0.00000000	      0.00000000
      0.40000000	     16.08079146	      4.48134804	      2.05004621	     -0.77878646	      0.96803312	     -0.15143618	     11.51404673	     -4.80927135	    -22.54678705	     13.46398892	     -3.60982019	      0.23499094	      4.13217747	     16.03300327	     -8.85846237	    -28.61014617	      6.29160658	     -7.32677563	      6.58321030	      0.21107197	      0.11489870	     17.43509000	     22.42941174	     -8.85846237	    -37.49868693	     -2.18778771	     -0.38202078	     -4.15353508	    -17.94455609	    -10.55105731	     65.37642655	     90.00000001	      0.00000000	      0.00000000	     11.45910507	    -22.29510937	      6.39914988	     69.87785748	     90.00000001	      0.00000000	      0.00000000
      0.41000000	     15.83392934	      4.71109746	      2.48852970	     -0.76514908	      0.96510698	     -0.15147542	     12.00644036	     -5.03342801	    -23.72201898	     11.93603208	     -3.43502749	      0.20832306	      3.73726917	     17.33042698	     -8.80455273	    -28.88782677	      6.22269498	     -7.47238463	      7.42250529	      0.12322597	      0.12954716	     18.23761127	     23.07691872	     -8.80455273	    -37.23604777	     -2.13247435	     -0.63654472	     -4.34773809	    -17.76461353	    -10.89814851	     65.04818323	     90.00000001	      0.00000000	      0.00000000	     12.03416987	    -22.54512359	      6.93005700	     70.11060368	     90.00000001	      0.00000000	      0.00000000
      0.42000000	     15.46777856	      5.04897403	      2.88538733	     -0.75145558	      0.96211601	     -0.15158443	     12.56639586	     -5.38518757	    -24.12088074	     10.82937782	     -3.13452902	      0.18900830	      3.59394959	     17.69143464	     -8.78328442	    -29.07333927	      6.34027298	     -7.37187662	      8.19472721	     -0.07493008	      0.14302497	     18.78470395	     23.37143193	     -8.78328442	    -36.83830911	     -2.19536976	     -0.96541394	     -4.46919487	    -17.58295202	    -11.10396048	     64.66450416	     90.00000001	      0.00000000	      0.00000000	     12.49691324	    -22.71831902	      7.27016734	     70.32061931	     90.00000001	      0.00000000	      0.00000000
      0.43000000	     15.00447474	      5.24559087	      3.14190509	     -0.73736169	      0.95904001	     -0.15140886	     13.37706581	     -5.53838553	    -24.26312385	     10.49844679	     -3.05821510	      0.18323246	      3.59468401	     17.62854912	     -8.77527430	    -29.25179828	      6.29181751	     -7.42821360	      8.79823036	     -0.04875827	      0.15355809	     18.87754252	     23.39386073	     -8.77527430	    -36.29593270	     -2.19758539	     -1.05347675	     -4.75820008	    -17.53465568	    -11.15754374	     64.43626141	     90.00000001	      0.00000000	      0.00000000	     12.77513455	    -22.69862053	      7.31689217	     70.53217212	     90.00000001	      0.00000000	      0.00000000
